<?xml version="1.0" encoding="UTF-8"?>
<svg xmlns="http://www.w3.org/2000/svg" width="512" height="512" viewBox="0 0 512 512" style="" data-svgdocument="" id="_slRg9OW1m_JjAJLZaOLqL" class="fl-svgdocument" x="0" y="0" overflow="hidden" data-bbox="48 144.66712532675112 388.93775408794477 222.66574934649773">
  <g transform="matrix(1, 0, 0, 1, -48.0000002283143, -212.86956521739128)">
    <g id="_thNBjP2pm59aGivnexebx" transform="matrix(0.9280300736427307, 0, 0, 0.9280300736427307, 19.55555534362793, 57.30098342895508)">
      <path id="_YYwM4-13CL3xJI3ZOyIvp" fill="#b1b1b1" transform="matrix(0.8950779438018799, 0.8950779438018799, -0.5189424157142639, 0.5189424157142639, 120.43588256835938, 89.63998413085938)" data-type="polygon" d="M88.385 8L0.391 160.359L176.379 160.359Z"></path>
      <path id="__EyqyxN_hJP0n1WDcfn67" d="M67 67H13V13h54V67z M15 65h50V15H15V65z" fill="#000000" transform="matrix(3.051792621612549, 0, 0, 3.051792621612549, -9.022955894470215, 129.60516357421875)"></path>
      <path id="_9OVUvc03BggJP4Wv6x5re" fill="#000000" transform="matrix(0.8909634351730347, 0.8909634351730347, -0.7424813508987427, 0.7424813508987427, 99.99698638916016, 107.91077423095703)" data-type="rect" data-x="0" data-y="84.525" data-width="176.742" data-height="7.219" d="M0 84.525H176.742 V91.744 H0 Z"></path>
      <path id="_oagJFIV6Tbcnnib2NHktq" fill="#000000" transform="matrix(0.44353073835372925, -0.44353073835372925, 0.7424813508987427, 0.7424813508987427, 48.71162796020508, 188.06024169921875)" data-type="rect" data-x="0" data-y="84.525" data-width="176.742" data-height="7.219" d="M0 84.525H176.742 V91.744 H0 Z"></path>
      <path id="_BVo4_rMKjVwFTLOi6Dy-1" fill="#000000" transform="matrix(0.4391323924064636, -0.4391323924064636, 0.7424813508987427, 0.7424813508987427, 50.342308044433594, 263.8133544921875)" data-type="rect" data-x="0" data-y="84.525" data-width="176.742" data-height="7.219" d="M0 84.525H176.742 V91.744 H0 Z"></path>
      <path id="_dtO6mQ2k7vgFiO_-MLBDd" fill="#000000" transform="matrix(0.4836132228374481, 0.4836132228374481, -0.7424813508987427, 0.7424813508987427, 99.6474609375, 180.36209106445312)" data-type="rect" data-x="0" data-y="84.525" data-width="176.742" data-height="7.219" d="M0 84.525H176.742 V91.744 H0 Z"></path>
      <path id="_j0p-xiTuOkTKSEMEebLD3" fill="#000000" transform="matrix(0.7429777383804321, 0, 0, 1.0500869750976562, 49.048927307128906, 92.95094299316406)" data-type="rect" data-x="0" data-y="84.525" data-width="176.742" data-height="7.219" d="M0 84.525H176.742 V91.744 H0 Z"></path>
      <path id="_snM0EOYy2-k2nsSx0CMkz" fill="#000000" transform="matrix(0.6144306659698486, 0, 0, 1.0500869750976562, 58.28469467163086, 107.4522476196289)" data-type="rect" data-x="0" data-y="84.525" data-width="176.742" data-height="7.219" d="M0 84.525H176.742 V91.744 H0 Z"></path>
      <path id="_AtSVcRatXW-lMXk3sh1LW" fill="#000000" transform="matrix(0.4146573841571808, 0, 0, 1.0500869750976562, 78.63275909423828, 122.64381408691406)" data-type="rect" data-x="0" data-y="84.525" data-width="176.742" data-height="7.219" d="M0 84.525H176.742 V91.744 H0 Z"></path>
      <path id="_oQJHx9HiyR0P_QxW476qa" fill="#000000" transform="matrix(0.24822689592838287, 0, 0, 1.0500869750976562, 92.58688354492188, 137.14511108398438)" data-type="rect" data-x="0" data-y="84.525" data-width="176.742" data-height="7.219" d="M0 84.525H176.742 V91.744 H0 Z"></path>
    </g>
    <path id="_-x2DEuhNe-C9Aukqqpnl1" fill="#000000" transform="matrix(0.6661998629570007, 0, 0, 0.6661998629570007, 221.5930938720703, 280.68316650390625)" text-anchor="start" font-size="100" letter-spacing="0" offset="0" dx="0" dy="0" href="" font-family="Fjalla One" x="0" y="0" data-fl-textpath="" d="M 7.13 0L 7.13-83.4L 20.26-83.4Q 23.24-83.4  26.44-83.23Q 29.64-83.06  32.69-82.18Q 35.74-81.3  38.45-79.47Q 41.16-77.64  43.21-74.34Q 45.26-71.04  46.46-66.04Q 47.66-61.04  47.66-53.81L 47.66-53.81L 47.66-29.59Q 47.66-22.36  46.46-17.33Q 45.26-12.3  43.21-9.03Q 41.16-5.76  38.45-3.93Q 35.74-2.1  32.69-1.22Q 29.64-0.34  26.44-0.17Q 23.24 0  20.26 0L 20.26 0L 7.13 0ZM 19.78-8.84L 23-8.84Q 26.42-8.84  28.64-9.72Q 30.86-10.6  32.15-12.82Q 33.45-15.04  33.94-18.87Q 34.42-22.71  34.42-28.56L 34.42-28.56L 34.42-54.44Q 34.42-60.3  33.94-64.14Q 33.45-67.97  32.15-70.19Q 30.86-72.41  28.64-73.29Q 26.42-74.17  23-74.17L 23-74.17L 19.78-74.17L 19.78-8.84ZM 67.436640625 0.73L 67.436640625 0.73Q 64.306640625 0.73  61.886640625-0.51Q 59.476640625-1.76  57.816640625-3.91Q 56.156640625-6.05  55.296640625-9.01Q 54.446640625-11.96  54.446640625-15.43L 54.446640625-15.43Q 54.446640625-19.58  55.466640625-22.8Q 56.496640625-26.03  58.476640625-28.61Q 60.446640625-31.2  63.376640625-33.33Q 66.306640625-35.45  70.166640625-37.35L 70.166640625-37.35Q 72.01664062500001-38.28  74.336640625-39.23Q 76.656640625-40.19  78.466640625-40.87L 78.466640625-40.87L 78.466640625-49.76Q 78.466640625-51.71  78.316640625-53.39Q 78.176640625-55.08  77.616640625-56.32Q 77.046640625-57.57  75.926640625-58.28Q 74.806640625-58.98  72.84664062499999-58.98L 72.84664062499999-58.98Q 71.536640625-58.98  70.286640625-58.5Q 69.046640625-58.01  68.086640625-56.84Q 67.136640625-55.66  66.576640625-53.71Q 66.01664062500001-51.76  66.01664062500001-48.88L 66.01664062500001-48.88L 66.01664062500001-45.95L 56.596640625-45.95Q 56.156640625-47.85  55.936640625-49.44Q 55.716640625-51.03  55.716640625-52.59L 55.716640625-52.59Q 55.716640625-56.35  57.006640625-59.23Q 58.296640625-62.11  60.616640625-64.06Q 62.936640625-66.02  66.166640625-67.02Q 69.386640625-68.02  73.246640625-68.02L 73.246640625-68.02Q 78.26664062500001-68.02  81.59664062499999-66.92Q 84.916640625-65.82  86.886640625-63.62Q 88.866640625-61.43  89.676640625-58.11Q 90.476640625-54.79  90.476640625-50.34L 90.476640625-50.34L 90.476640625 0L 81.296640625 0L 80.416640625-5.76Q 78.416640625-2.88  75.076640625-1.07Q 71.726640625 0.73  67.436640625 0.73ZM 72.896640625-8.79L 72.896640625-8.79Q 74.466640625-8.79  75.956640625-9.59Q 77.436640625-10.4  78.466640625-11.57L 78.466640625-11.57L 78.466640625-32.62Q 77.486640625-32.23  76.26664062500001-31.69Q 75.046640625-31.15  73.636640625-30.27L 73.636640625-30.27Q 72.316640625-29.44  71.046640625-28.27Q 69.776640625-27.1  68.776640625-25.49Q 67.776640625-23.88  67.166640625-21.85Q 66.556640625-19.82  66.556640625-17.33L 66.556640625-17.33Q 66.556640625-13.48  68.066640625-11.13Q 69.576640625-8.79  72.896640625-8.79ZM 104.683828125-16.75L 104.683828125-58.45L 99.463828125-58.45L 99.463828125-67.24L 105.763828125-67.24L 108.253828125-84.67L 117.043828125-84.67L 117.043828125-67.24L 127.783828125-67.24L 127.783828125-58.45L 117.043828125-58.45L 117.043828125-15.67Q 117.043828125-13.48  117.453828125-12.13Q 117.873828125-10.79  118.603828125-10.03Q 119.333828125-9.28  120.313828125-9.03Q 121.293828125-8.79  122.363828125-8.79L 122.363828125-8.79Q 124.173828125-8.79  125.563828125-9.23Q 126.953828125-9.67  128.223828125-10.45L 128.223828125-10.45L 128.223828125-3.61Q 127.143828125-2.29  125.903828125-1.46Q 124.653828125-0.63  123.343828125-0.12Q 122.023828125 0.39  120.653828125 0.59Q 119.283828125 0.78  117.96382812499999 0.78L 117.96382812499999 0.78Q 115.38382812500001 0.78  112.983828125 0.1Q 110.593828125-0.59  108.743828125-2.51Q 106.88382812500001-4.44  105.783828125-7.86Q 104.683828125-11.28  104.683828125-16.75L 104.683828125-16.75ZM 145.5128125 0.73L 145.5128125 0.73Q 142.3828125 0.73  139.9628125-0.51Q 137.5528125-1.76  135.8928125-3.91Q 134.2328125-6.05  133.3728125-9.01Q 132.5228125-11.96  132.5228125-15.43L 132.5228125-15.43Q 132.5228125-19.58  133.5428125-22.8Q 134.5728125-26.03  136.5528125-28.61Q 138.5228125-31.2  141.4528125-33.33Q 144.3828125-35.45  148.2428125-37.35L 148.2428125-37.35Q 150.0928125-38.28  152.4128125-39.23Q 154.7328125-40.19  156.5428125-40.87L 156.5428125-40.87L 156.5428125-49.76Q 156.5428125-51.71  156.3928125-53.39Q 156.2528125-55.08  155.6928125-56.32Q 155.1228125-57.57  154.0028125-58.28Q 152.8828125-58.98  150.9228125-58.98L 150.9228125-58.98Q 149.6128125-58.98  148.3628125-58.5Q 147.1228125-58.01  146.1628125-56.84Q 145.2128125-55.66  144.6528125-53.71Q 144.0928125-51.76  144.0928125-48.88L 144.0928125-48.88L 144.0928125-45.95L 134.6728125-45.95Q 134.2328125-47.85  134.0128125-49.44Q 133.7928125-51.03  133.7928125-52.59L 133.7928125-52.59Q 133.7928125-56.35  135.0828125-59.23Q 136.3728125-62.11  138.6928125-64.06Q 141.0128125-66.02  144.2428125-67.02Q 147.46281249999998-68.02  151.3228125-68.02L 151.3228125-68.02Q 156.3428125-68.02  159.6728125-66.92Q 162.9928125-65.82  164.96281249999998-63.62Q 166.9428125-61.43  167.7528125-58.11Q 168.55281250000002-54.79  168.55281250000002-50.34L 168.55281250000002-50.34L 168.55281250000002 0L 159.3728125 0L 158.4928125-5.76Q 156.4928125-2.88  153.1528125-1.07Q 149.80281250000002 0.73  145.5128125 0.73ZM 150.9728125-8.79L 150.9728125-8.79Q 152.5428125-8.79  154.0328125-9.59Q 155.5128125-10.4  156.5428125-11.57L 156.5428125-11.57L 156.5428125-32.62Q 155.5628125-32.23  154.3428125-31.69Q 153.1228125-31.15  151.71281249999998-30.27L 151.71281249999998-30.27Q 150.3928125-29.44  149.1228125-28.27Q 147.8528125-27.1  146.8528125-25.49Q 145.8528125-23.88  145.2428125-21.85Q 144.6328125-19.82  144.6328125-17.33L 144.6328125-17.33Q 144.6328125-13.48  146.1428125-11.13Q 147.6528125-8.79  150.9728125-8.79ZM 178.71-14.06L 178.71-14.06Q 178.71-16.26  179.13-18.31Q 179.54-20.36  179.93-21.58L 179.93-21.58L 188.62-21.58Q 188.62-17.92  188.99-15.45Q 189.36-12.99  190.19-11.52Q 191.02-10.06  192.41-9.42Q 193.8-8.79  195.8-8.79L 195.8-8.79Q 198.57999999999998-8.79  199.85-10.35Q 201.12-11.91  201.12-13.96L 201.12-13.96Q 201.12-15.04  200.82999999999998-16.02Q 200.54-16.99  200-17.99Q 199.46-18.99  198.68-20.02Q 197.9-21.04  196.92000000000002-22.27L 196.92000000000002-22.27L 187.89-32.91Q 186.13-35.11  184.5-37.38Q 182.86-39.65  181.62-42.07Q 180.37-44.48  179.61-47.12Q 178.86-49.76  178.86-52.69L 178.86-52.69Q 178.86-56.59  180.2-59.47Q 181.54-62.35  183.81-64.26Q 186.08-66.16  189.06-67.09Q 192.04-68.02  195.36-68.02L 195.36-68.02Q 199.02-68.02  201.95-67.14Q 204.88-66.26  206.98-64.5Q 209.07999999999998-62.74  210.21-60.13Q 211.32999999999998-57.52  211.32999999999998-54.05L 211.32999999999998-54.05Q 211.32999999999998-51.71  210.91-49.51Q 210.5-47.31  210.11-45.75L 210.11-45.75L 201.56-45.75Q 201.51-49.07  201.27-51.56Q 201.03-54.05  200.37-55.69Q 199.71-57.32  198.56-58.15Q 197.41-58.98  195.56-58.98L 195.56-58.98Q 193.95-58.98  192.87-58.47Q 191.8-57.96  191.14-57.13Q 190.48-56.3  190.21-55.27Q 189.94-54.25  189.94-53.17L 189.94-53.17Q 189.94-50.83  191.06-48.83Q 192.19-46.83  194.04-44.48L 194.04-44.48L 203.91-32.91Q 204.98-31.59  206.4-29.71Q 207.81-27.83  209.07999999999998-25.56Q 210.35-23.29  211.23-20.61Q 212.11-17.92  212.11-14.99L 212.11-14.99Q 212.11-11.43  210.99-8.52Q 209.86-5.62  207.67000000000002-3.56Q 205.47-1.51  202.27-0.39Q 199.07 0.73  194.97 0.73L 194.97 0.73Q 191.6 0.73  188.62-0.02Q 185.64-0.78  183.45-2.51Q 181.25-4.25  179.98-7.08Q 178.71-9.91  178.71-14.06ZM 238.768515625 0.73L 238.768515625 0.73Q 236.618515625 0.73  234.39851562500002 0.39Q 232.178515625 0.05  230.098515625-1.03Q 228.028515625-2.1  226.198515625-4.1Q 224.368515625-6.1  222.998515625-9.38Q 221.628515625-12.65  220.848515625-17.43Q 220.068515625-22.22  220.068515625-28.86L 220.068515625-28.86L 220.068515625-39.4Q 220.068515625-45.95  220.878515625-50.61Q 221.678515625-55.27  223.068515625-58.45Q 224.458515625-61.62  226.318515625-63.5Q 228.178515625-65.38  230.248515625-66.38Q 232.328515625-67.38  234.518515625-67.7Q 236.718515625-68.02  238.818515625-68.02L 238.818515625-68.02Q 240.818515625-68.02  242.968515625-67.72Q 245.118515625-67.43  247.168515625-66.48Q 249.218515625-65.53  251.048515625-63.65Q 252.878515625-61.77  254.268515625-58.59Q 255.668515625-55.42  256.468515625-50.71Q 257.278515625-46  257.278515625-39.4L 257.278515625-39.4L 257.278515625-28.86Q 257.278515625-22.31  256.448515625-17.58Q 255.618515625-12.84  254.198515625-9.57Q 252.778515625-6.3  250.928515625-4.27Q 249.068515625-2.25  247.018515625-1.12Q 244.968515625 0  242.848515625 0.37Q 240.718515625 0.73  238.768515625 0.73ZM 238.868515625-8.79L 238.868515625-8.79Q 240.528515625-8.79  241.678515625-9.64Q 242.818515625-10.5  243.528515625-12.45Q 244.238515625-14.4  244.55851562499998-17.6Q 244.868515625-20.8  244.868515625-25.54L 244.868515625-25.54L 244.868515625-42.09Q 244.868515625-46.83  244.55851562499998-50.05Q 244.238515625-53.27  243.528515625-55.25Q 242.818515625-57.23  241.678515625-58.11Q 240.528515625-58.98  238.868515625-58.98L 238.868515625-58.98Q 237.108515625-58.98  235.908515625-58.11Q 234.718515625-57.23  233.938515625-55.25Q 233.158515625-53.27  232.80851562499998-50.05Q 232.468515625-46.83  232.468515625-42.09L 232.468515625-42.09L 232.468515625-25.54Q 232.468515625-20.8  232.80851562499998-17.6Q 233.158515625-14.4  233.938515625-12.45Q 234.718515625-10.5  235.908515625-9.64Q 237.108515625-8.79  238.868515625-8.79ZM 269.875234375 0L 269.875234375-58.45L 264.065234375-58.45L 264.065234375-67.24L 269.875234375-67.24L 269.875234375-72.07Q 269.875234375-77.54  270.995234375-80.98Q 272.115234375-84.42  274.095234375-86.35Q 276.075234375-88.28  278.735234375-88.96Q 281.395234375-89.65  284.475234375-89.65L 284.475234375-89.65Q 285.355234375-89.65  286.445234375-89.55Q 287.545234375-89.45  288.645234375-89.23Q 289.745234375-89.01  290.795234375-88.72Q 291.845234375-88.43  292.675234375-87.99L 292.675234375-87.99L 292.675234375-79.3Q 290.625234375-79.83  288.085234375-79.83L 288.085234375-79.83Q 286.865234375-79.83  285.765234375-79.44Q 284.665234375-79.05  283.835234375-78.15Q 283.005234375-77.25  282.515234375-75.76Q 282.035234375-74.27  282.035234375-72.07L 282.035234375-72.07L 282.035234375-67.24L 291.355234375-67.24L 291.355234375-58.45L 282.035234375-58.45L 282.035234375 0L 269.875234375 0ZM 299.703359375-16.75L 299.703359375-58.45L 294.483359375-58.45L 294.483359375-67.24L 300.783359375-67.24L 303.273359375-84.67L 312.063359375-84.67L 312.063359375-67.24L 322.803359375-67.24L 322.803359375-58.45L 312.063359375-58.45L 312.063359375-15.67Q 312.063359375-13.48  312.473359375-12.13Q 312.893359375-10.79  313.623359375-10.03Q 314.353359375-9.28  315.333359375-9.03Q 316.313359375-8.79  317.383359375-8.79L 317.383359375-8.79Q 319.193359375-8.79  320.583359375-9.23Q 321.973359375-9.67  323.243359375-10.45L 323.243359375-10.45L 323.243359375-3.61Q 322.163359375-2.29  320.923359375-1.46Q 319.673359375-0.63  318.363359375-0.12Q 317.043359375 0.39  315.673359375 0.59Q 314.303359375 0.78  312.983359375 0.78L 312.983359375 0.78Q 310.403359375 0.78  308.003359375 0.1Q 305.613359375-0.59  303.763359375-2.51Q 301.903359375-4.44  300.803359375-7.86Q 299.703359375-11.28  299.703359375-16.75L 299.703359375-16.75Z"></path>
    <path fill="#000000" text-anchor="middle" offset="0.5" font-size="48" font-family="Open Sans" transform="matrix(1, 0, 0, 1, 321.0783996582031, 334.1174011230469)" data-fl-textpath="" d="M-70.04046875-24.28L-70.04046875-24.28Q-70.04046875-19.08 -73.59046875-16.28Q-77.14046875-13.48 -83.75046875-13.48L-83.75046875-13.48L-87.78046875-13.48L-87.78046875 0L-91.77046875 0L-91.77046875-34.27L-82.89046875-34.27Q-70.04046875-34.27 -70.04046875-24.28ZM-87.78046875-30.82L-87.78046875-16.9L-84.20046875-16.9Q-78.90046875-16.9 -76.53046875-18.61Q-74.17046875-20.32 -74.17046875-24.09L-74.17046875-24.09Q-74.17046875-27.49 -76.39046875-29.16Q-78.62046875-30.82 -83.33046875-30.82L-83.33046875-30.82L-87.78046875-30.82ZM-41.28203125-12.87L-41.28203125-12.87Q-41.28203125-6.59 -44.452031250000005-3.06Q-47.61203125 0.47 -53.19203125 0.47L-53.19203125 0.47Q-56.63203125 0.47 -59.312031250000004-1.15Q-61.98203125-2.77 -63.43203125-5.79Q-64.88203125-8.81 -64.88203125-12.87L-64.88203125-12.87Q-64.88203125-19.15 -61.74203125-22.65Q-58.602031249999996-26.16 -53.03203125-26.16L-53.03203125-26.16Q-47.63203125-26.16 -44.462031249999995-22.57Q-41.28203125-18.98 -41.28203125-12.87ZM-60.852031249999996-12.87L-60.852031249999996-12.87Q-60.852031249999996-7.95 -58.88203125-5.37Q-56.92203125-2.79 -53.102031249999996-2.79L-53.102031249999996-2.79Q-49.28203125-2.79 -47.29203125-5.36Q-45.312031250000004-7.92 -45.312031250000004-12.87L-45.312031250000004-12.87Q-45.312031250000004-17.77 -47.29203125-20.31Q-49.28203125-22.85 -53.14203125-22.85L-53.14203125-22.85Q-56.96203125-22.85 -58.91203125-20.34Q-60.852031249999996-17.84 -60.852031249999996-12.87ZM-22.74984375-26.16L-22.74984375-26.16Q-21.03984375-26.16 -19.67984375-25.88L-19.67984375-25.88L-20.20984375-22.27Q-21.80984375-22.62 -23.029843749999998-22.62L-23.029843749999998-22.62Q-26.13984375-22.62 -28.35984375-20.09Q-30.56984375-17.55 -30.56984375-13.78L-30.56984375-13.78L-30.56984375 0L-34.45984375 0L-34.45984375-25.69L-31.24984375-25.69L-30.80984375-20.93L-30.61984375-20.93Q-29.18984375-23.44 -27.17984375-24.8Q-25.15984375-26.16 -22.74984375-26.16ZM-6.57609375-2.74L-6.57609375-2.74Q-5.546093750000001-2.74 -4.58609375-2.89Q-3.616093749999999-3.05 -3.0560937500000005-3.21L-3.0560937500000005-3.21L-3.0560937500000005-0.23Q-3.6960937499999993 0.07 -4.92609375 0.27Q-6.15609375 0.47 -7.136093750000001 0.47L-7.136093750000001 0.47Q-14.58609375 0.47 -14.58609375-7.38L-14.58609375-7.38L-14.58609375-22.66L-18.26609375-22.66L-18.26609375-24.54L-14.58609375-26.16L-12.94609375-31.64L-10.69609375-31.64L-10.69609375-25.69L-3.24609375-25.69L-3.24609375-22.66L-10.69609375-22.66L-10.69609375-7.55Q-10.69609375-5.23 -9.59609375-3.98Q-8.49609375-2.74 -6.57609375-2.74ZM 13.64921875-25.69L 13.64921875-22.66L 7.10921875-22.66L 7.10921875 0L 3.2192187499999996 0L 3.2192187499999996-22.66L-1.3707812499999998-22.66L-1.3707812499999998-24.42L 3.2192187499999996-25.83L 3.2192187499999996-27.26Q 3.2192187499999996-36.73  11.49921875-36.73L 11.49921875-36.73Q 13.53921875-36.73  16.27921875-35.91L 16.27921875-35.91L 15.26921875-32.79Q 13.01921875-33.52  11.42921875-33.52L 11.42921875-33.52Q 9.21921875-33.52  8.16921875-32.05Q 7.10921875-30.59  7.10921875-27.35L 7.10921875-27.35L 7.10921875-25.69L 13.64921875-25.69ZM 40.51484375-12.87L 40.51484375-12.87Q 40.51484375-6.59  37.344843749999995-3.06Q 34.18484375 0.47  28.60484375 0.47L 28.60484375 0.47Q 25.16484375 0.47  22.48484375-1.15Q 19.81484375-2.77  18.36484375-5.79Q 16.91484375-8.81  16.91484375-12.87L 16.91484375-12.87Q 16.91484375-19.15  20.05484375-22.65Q 23.19484375-26.16  28.76484375-26.16L 28.76484375-26.16Q 34.16484375-26.16  37.334843750000005-22.57Q 40.51484375-18.98  40.51484375-12.87ZM 20.94484375-12.87L 20.94484375-12.87Q 20.94484375-7.95  22.91484375-5.37Q 24.87484375-2.79  28.69484375-2.79L 28.69484375-2.79Q 32.51484375-2.79  34.50484375-5.36Q 36.484843749999996-7.92  36.484843749999996-12.87L 36.484843749999996-12.87Q 36.484843749999996-17.77  34.50484375-20.31Q 32.51484375-22.85  28.654843749999998-22.85L 28.654843749999998-22.85Q 24.834843749999997-22.85  22.88484375-20.34Q 20.94484375-17.84  20.94484375-12.87ZM 51.227031249999996-36.47L 51.227031249999996 0L 47.33703125 0L 47.33703125-36.47L 51.227031249999996-36.47ZM 63.367656249999996-25.69L 63.367656249999996 0L 59.47765625 0L 59.47765625-25.69L 63.367656249999996-25.69ZM 59.14765625-32.65L 59.14765625-32.65Q 59.14765625-33.98  59.79765625-34.61Q 60.45765625-35.23  61.43765625-35.23L 61.43765625-35.23Q 62.37765625-35.23  63.05765625-34.59Q 63.73765625-33.96  63.73765625-32.65L 63.73765625-32.65Q 63.73765625-31.34  63.05765625-30.69Q 62.37765625-30.05  61.43765625-30.05L 61.43765625-30.05Q 60.45765625-30.05  59.79765625-30.69Q 59.14765625-31.34  59.14765625-32.65ZM 93.78828125-12.87L 93.78828125-12.87Q 93.78828125-6.59  90.61828125-3.06Q 87.45828125 0.47  81.87828125 0.47L 81.87828125 0.47Q 78.43828125 0.47  75.75828125-1.15Q 73.08828125-2.77  71.63828125-5.79Q 70.18828125-8.81  70.18828125-12.87L 70.18828125-12.87Q 70.18828125-19.15  73.32828125-22.65Q 76.46828125-26.16  82.03828125-26.16L 82.03828125-26.16Q 87.43828125-26.16  90.60828125-22.57Q 93.78828125-18.98  93.78828125-12.87ZM 74.21828125-12.87L 74.21828125-12.87Q 74.21828125-7.95  76.18828125-5.37Q 78.14828125-2.79  81.96828125-2.79L 81.96828125-2.79Q 85.78828125-2.79  87.77828124999999-5.36Q 89.75828125-7.92  89.75828125-12.87L 89.75828125-12.87Q 89.75828125-17.77  87.77828124999999-20.31Q 85.78828125-22.85  81.92828125-22.85L 81.92828125-22.85Q 78.10828125-22.85  76.15828125-20.34Q 74.21828125-17.84  74.21828125-12.87Z"></path>
  </g>
</svg>
