<svg xmlns="http://www.w3.org/2000/svg" width="374" height="127" viewBox="0 0 374 127" class="fl-svgdocument" overflow="hidden" data-bbox="48 144.66712532675112 388.93775408794477 222.66574934649773">
<path fill="#ada9a0" data-type="polygon" d="M120.26 4.754 6.967 4.972l113.076 113.076Z"/>
<path fill="#e6e6e6" d="M120.298 120.45H2V2.152h118.298V120.45zM6.381 116.068h109.536V6.533H6.38v109.535z"/>
<path fill="#e6e6e6" data-type="rect" data-x="0" data-y="84.525" data-width="176.742" data-height="7.219" d="m6.729 3.15 113.038 113.04-3.847 3.848L2.88 6.998Z"/>
<path fill="#e6e6e6" data-type="rect" data-x="0" data-y="84.525" data-width="176.742" data-height="7.219" d="m60.015 60.685 56.272-56.272 3.847 3.847-56.272 56.272Zm1.17 54.378 55.714-55.714 3.847 3.848-55.714 55.714Z"/>
<path fill="#e6e6e6" data-type="rect" data-x="0" data-y="84.525" data-width="176.742" data-height="7.219" d="m6.478 55.159 61.357 61.357-3.848 3.847L2.63 59.006Zm8.729-44.084h94.264v5.442H15.207Zm6.63 10.41h77.955v5.442H21.837ZM36.444 32.39h52.609v5.442h-52.61ZM46.46 42.8h31.494v5.441H46.461Z"/>
<path fill="#e6e6e6" font-size="100" letter-spacing="4" font-family="Fjalla One" d="M141.703 63.936V8.375h8.747q1.985 0 4.117.113 2.132.113 4.164.7t3.837 1.805q1.806 1.22 3.172 3.418t2.165 5.53q.8 3.33.8 8.147v16.135q0 4.817-.8 8.168-.8 3.35-2.165 5.53-1.366 2.178-3.172 3.397-1.805 1.219-3.837 1.805-2.032.586-4.164.7-2.132.113-4.117.113h-8.747Zm8.427-5.89h2.146q2.278 0 3.757-.585 1.479-.587 2.338-2.066.866-1.479 1.193-4.03.32-2.558.32-6.456V27.67q0-3.905-.32-6.463-.327-2.552-1.193-4.03-.86-1.48-2.338-2.066-1.479-.586-3.757-.586h-2.146v43.523Zm34.414 6.376q-2.085 0-3.697-.826-1.606-.833-2.712-2.265-1.105-1.426-1.678-3.397-.567-1.966-.567-4.277 0-2.765.68-4.91.686-2.152 2.005-3.871 1.313-1.725 3.265-3.144 1.952-1.413 4.523-2.679 1.233-.62 2.778-1.252 1.546-.64 2.752-1.093v-5.922q0-1.3-.1-2.418-.094-1.126-.467-1.952-.38-.833-1.126-1.306-.746-.466-2.052-.466-.872 0-1.705.32-.826.326-1.466 1.105-.633.786-1.006 2.085t-.373 3.218v1.952h-6.275q-.293-1.266-.44-2.325-.147-1.06-.147-2.098 0-2.505.86-4.424T180 21.259q1.545-1.306 3.697-1.972 2.145-.666 4.717-.666 3.344 0 5.563.733 2.212.733 3.524 2.198 1.319 1.46 1.859 3.671.533 2.212.533 5.176v33.537h-6.116l-.586-3.837q-1.333 1.918-3.558 3.124-2.232 1.2-5.09 1.2Zm3.638-6.342q1.046 0 2.038-.533.986-.54 1.673-1.319V42.205q-.653.26-1.466.62-.813.359-1.752.945-.88.553-1.726 1.333-.846.779-1.512 1.852-.666 1.072-1.073 2.425-.406 1.352-.406 3.01 0 2.566 1.006 4.131 1.006 1.56 3.218 1.56Zm23.841-5.303v-27.78h-3.477V19.14h4.197L214.4 7.529h5.856V19.14h7.155v5.856h-7.155v28.5q0 1.459.273 2.358.28.893.767 1.399.486.5 1.139.666.653.16 1.365.16 1.206 0 2.132-.293.926-.293 1.772-.813v4.557q-.72.88-1.545 1.432-.833.553-1.706.893-.879.34-1.792.473-.912.127-1.792.127-1.719 0-3.317-.453-1.593-.46-2.825-1.74-1.24-1.285-1.972-3.563-.733-2.279-.733-5.923Zm29.865 11.645q-2.085 0-3.697-.826-1.606-.833-2.712-2.265-1.106-1.426-1.679-3.397-.566-1.966-.566-4.277 0-2.765.68-4.91.686-2.152 2.005-3.871 1.312-1.725 3.264-3.144 1.952-1.413 4.524-2.679 1.232-.62 2.778-1.252 1.546-.64 2.751-1.093v-5.922q0-1.3-.1-2.418-.093-1.126-.466-1.952-.38-.833-1.126-1.306-.746-.466-2.052-.466-.872 0-1.705.32-.826.326-1.466 1.105-.633.786-1.006 2.085t-.373 3.218v1.952h-6.275q-.294-1.266-.44-2.325-.147-1.06-.147-2.098 0-2.505.86-4.424t2.405-3.218q1.545-1.306 3.697-1.972 2.145-.666 4.717-.666 3.344 0 5.563.733 2.211.733 3.524 2.198 1.319 1.46 1.858 3.671.533 2.212.533 5.176v33.537h-6.115l-.587-3.837q-1.332 1.918-3.557 3.124-2.232 1.2-5.09 1.2Zm3.638-6.342q1.046 0 2.038-.533.986-.54 1.672-1.319V42.205q-.653.26-1.465.62-.813.359-1.752.945-.88.553-1.726 1.333-.846.779-1.512 1.852-.666 1.072-1.073 2.425-.406 1.352-.406 3.01 0 2.566 1.006 4.131 1.006 1.56 3.218 1.56Zm21.143-3.51q0-1.466.28-2.832.273-1.366.533-2.179h5.789q0 2.439.246 4.084.247 1.64.8 2.618.553.973 1.479 1.4.926.42 2.258.42 1.852 0 2.698-1.04t.846-2.405q0-.72-.193-1.373-.193-.646-.553-1.312t-.88-1.352q-.519-.68-1.172-1.5l-6.015-7.088q-1.173-1.465-2.259-2.978-1.092-1.512-1.919-3.124-.832-1.606-1.339-3.364-.5-1.76-.5-3.711 0-2.598.893-4.517.893-1.919 2.405-3.191 1.513-1.266 3.498-1.885 1.985-.62 4.197-.62 2.438 0 4.39.586 1.952.587 3.351 1.76 1.4 1.172 2.152 2.91.746 1.74.746 4.05 0 1.56-.28 3.025-.273 1.466-.533 2.505h-5.696q-.033-2.211-.193-3.87-.16-1.66-.6-2.752-.439-1.086-1.205-1.639-.766-.552-1.999-.552-1.072 0-1.792.34-.713.339-1.152.892-.44.553-.62 1.24-.18.679-.18 1.398 0 1.56.746 2.891.753 1.333 1.986 2.898l6.575 7.708q.713.88 1.659 2.132.94 1.253 1.785 2.765.846 1.512 1.433 3.298.586 1.792.586 3.744 0 2.371-.746 4.31-.753 1.932-2.212 3.304-1.466 1.366-3.598 2.112t-4.863.746q-2.245 0-4.23-.5-1.985-.506-3.444-1.658-1.466-1.16-2.312-3.045t-.846-4.65Zm42.676 9.852q-1.432 0-2.911-.226t-2.865-.946q-1.38-.713-2.598-2.045-1.22-1.333-2.132-3.518-.913-2.178-1.432-5.363-.52-3.191-.52-7.615v-7.021q0-4.364.54-7.468.533-3.105 1.459-5.223.926-2.112 2.165-3.365t2.618-1.918q1.386-.667 2.845-.88 1.465-.213 2.864-.213 1.333 0 2.765.2 1.432.193 2.798.826t2.585 1.885q1.219 1.253 2.145 3.371.933 2.112 1.466 5.25.54 3.138.54 7.535v7.021q0 4.364-.554 7.515-.553 3.158-1.499 5.336-.946 2.179-2.178 3.531-1.24 1.346-2.605 2.099-1.366.746-2.778.992-1.419.24-2.718.24Zm.067-6.342q1.105 0 1.872-.566.759-.573 1.232-1.872.473-1.3.686-3.431.207-2.132.207-5.29V35.896q0-3.158-.207-5.303-.213-2.145-.686-3.465t-1.232-1.905q-.767-.58-1.872-.58-1.173 0-1.972.58-.793.586-1.313 1.905t-.753 3.465q-.226 2.145-.226 5.303V46.92q0 3.158.226 5.29.234 2.132.753 3.43.52 1.3 1.313 1.873.799.566 1.972.566Zm23.32 5.856v-38.94h-3.87v-5.855h3.87v-3.218q0-3.644.747-5.936.746-2.292 2.065-3.577 1.319-1.286 3.091-1.74 1.772-.459 3.824-.459.586 0 1.312.067.733.066 1.466.213t1.432.34q.7.193 1.253.486v5.79q-1.366-.354-3.058-.354-.813 0-1.546.26-.732.26-1.285.86-.553.599-.88 1.592-.32.992-.32 2.458v3.218h6.21v5.856h-6.21v38.939h-8.1Zm22.537-11.159v-27.78h-3.478V19.14h4.197l1.66-11.612h5.855V19.14h7.155v5.856h-7.155v28.5q0 1.459.273 2.358.28.893.766 1.399.487.5 1.14.666.652.16 1.365.16 1.206 0 2.132-.293.926-.293 1.772-.813v4.557q-.72.88-1.545 1.432-.833.553-1.706.893-.88.34-1.792.473-.913.127-1.792.127-1.719 0-3.318-.453-1.592-.46-2.824-1.74-1.24-1.285-1.972-3.563-.733-2.279-.733-5.923Z"/>
<path fill="#e6e6e6" text-anchor="middle" font-size="48" font-family="Open Sans" letter-spacing="0" d="M163.433 95.701q0 5.2-3.55 8t-10.16 2.8h-4.03v13.48h-3.99v-34.27h8.88q12.85 0 12.85 9.99Zm-17.74-6.54v13.92h3.58q5.3 0 7.67-1.71 2.36-1.71 2.36-5.48 0-3.4-2.22-5.07-2.23-1.66-6.94-1.66h-4.45Zm46.498 17.95q0 6.28-3.17 9.81-3.16 3.53-8.74 3.53-3.44 0-6.12-1.62-2.67-1.62-4.12-4.64-1.45-3.02-1.45-7.08 0-6.28 3.14-9.78 3.14-3.51 8.71-3.51 5.4 0 8.57 3.59 3.18 3.59 3.18 9.7Zm-19.57 0q0 4.92 1.97 7.5 1.96 2.58 5.78 2.58 3.82 0 5.81-2.57 1.98-2.56 1.98-7.51 0-4.9-1.98-7.44-1.99-2.54-5.85-2.54-3.82 0-5.77 2.51-1.94 2.5-1.94 7.47Zm38.102-13.29q1.71 0 3.07.28l-.53 3.61q-1.6-.35-2.82-.35-3.11 0-5.33 2.53-2.21 2.54-2.21 6.31v13.78h-3.89v-25.69h3.21l.44 4.76h.19q1.43-2.51 3.44-3.87 2.02-1.36 4.43-1.36Zm16.174 23.42q1.03 0 1.99-.15.97-.16 1.53-.32v2.98q-.64.3-1.87.5t-2.21.2q-7.45 0-7.45-7.85v-15.28h-3.68v-1.88l3.68-1.62 1.64-5.48h2.25v5.95h7.45v3.03h-7.45v15.11q0 2.32 1.1 3.57 1.1 1.24 3.02 1.24Zm20.225-22.95v3.03h-6.54v22.66h-3.89v-22.66h-4.59v-1.76l4.59-1.41v-1.43q0-9.47 8.28-9.47 2.04 0 4.78.82l-1.01 3.12q-2.25-.73-3.84-.73-2.21 0-3.26 1.47-1.06 1.46-1.06 4.7v1.66h6.54Zm26.866 12.82q0 6.28-3.17 9.81-3.16 3.53-8.74 3.53-3.44 0-6.12-1.62-2.67-1.62-4.12-4.64-1.45-3.02-1.45-7.08 0-6.28 3.14-9.78 3.14-3.51 8.71-3.51 5.4 0 8.57 3.59 3.18 3.59 3.18 9.7Zm-19.57 0q0 4.92 1.97 7.5 1.96 2.58 5.78 2.58 3.82 0 5.81-2.57 1.98-2.56 1.98-7.51 0-4.9-1.98-7.44-1.99-2.54-5.85-2.54-3.82 0-5.77 2.51-1.94 2.5-1.94 7.47Zm30.282-23.6v36.47h-3.89v-36.47h3.89Zm12.14 10.78v25.69h-3.89v-25.69h3.89Zm-4.22-6.96q0-1.33.65-1.96.66-.62 1.64-.62.94 0 1.62.64.68.63.68 1.94t-.68 1.96q-.68.64-1.62.64-.98 0-1.64-.64-.65-.65-.65-1.96Zm34.641 19.78q0 6.28-3.17 9.81-3.16 3.53-8.74 3.53-3.44 0-6.12-1.62-2.67-1.62-4.12-4.64-1.45-3.02-1.45-7.08 0-6.28 3.14-9.78 3.14-3.51 8.71-3.51 5.4 0 8.57 3.59 3.18 3.59 3.18 9.7Zm-19.57 0q0 4.92 1.97 7.5 1.96 2.58 5.78 2.58 3.82 0 5.81-2.57 1.98-2.56 1.98-7.51 0-4.9-1.98-7.44-1.99-2.54-5.85-2.54-3.82 0-5.77 2.51-1.94 2.5-1.94 7.47Z"/>
</svg>
